<svg width="1170" height="617" viewBox="0 0 1170 617" fill="none" xmlns="http://www.w3.org/2000/svg">
<line x1="322.25" x2="322.25" y2="616.284" stroke="#452982"/>
<line x1="146.75" x2="146.75" y2="616.284" stroke="#452982"/>
<line x1="497.749" x2="497.749" y2="616.284" stroke="#452982"/>
<line x1="673.249" x2="673.249" y2="616.284" stroke="#452982"/>
<line x1="848.749" x2="848.749" y2="616.284" stroke="#452982"/>
<line x1="1024.25" x2="1024.25" y2="616.284" stroke="#452982"/>
<line y1="-0.5" x2="1170" y2="-0.5" transform="matrix(1 6.16141e-09 2.30796e-08 -1 0 42.8719)" stroke="#452982"/>
<line y1="-0.5" x2="1170" y2="-0.5" transform="matrix(1 6.16141e-09 2.30796e-08 -1 0 139.334)" stroke="#452982"/>
<line y1="-0.5" x2="1170" y2="-0.5" transform="matrix(1 6.16141e-09 2.30796e-08 -1 0 235.795)" stroke="#452982"/>
<line y1="-0.5" x2="1170" y2="-0.5" transform="matrix(1 6.16141e-09 2.30796e-08 -1 0 332.257)" stroke="#452982"/>
<line y1="-0.5" x2="1170" y2="-0.5" transform="matrix(1 6.16141e-09 2.30796e-08 -1 0 428.719)" stroke="#452982"/>
<line y1="-0.5" x2="1170" y2="-0.5" transform="matrix(1 6.16141e-09 2.30796e-08 -1 0 525.181)" stroke="#452982"/>
<line x1="409.999" x2="409.999" y2="616.284" stroke="#452982"/>
<line x1="234.5" x2="234.5" y2="616.284" stroke="#452982"/>
<line x1="58.9594" y1="2.17032e-08" x2="58.9593" y2="616.284" stroke="#452982"/>
<line x1="585.499" x2="585.499" y2="616.284" stroke="#452982"/>
<line x1="760.999" x2="760.999" y2="616.284" stroke="#452982"/>
<line x1="936.499" x2="936.499" y2="616.284" stroke="#452982"/>
<line x1="1112" x2="1112" y2="616.284" stroke="#452982"/>
<line y1="-0.5" x2="1170" y2="-0.5" transform="matrix(1 6.16141e-09 2.30796e-08 -1 0 91.1029)" stroke="#452982"/>
<line y1="-0.5" x2="1170" y2="-0.5" transform="matrix(1 6.16141e-09 2.30796e-08 -1 0 187.565)" stroke="#452982"/>
<line y1="-0.5" x2="1170" y2="-0.5" transform="matrix(1 6.16141e-09 2.30796e-08 -1 0 284.026)" stroke="#452982"/>
<line y1="-0.5" x2="1170" y2="-0.5" transform="matrix(1 6.16141e-09 2.30796e-08 -1 0 380.488)" stroke="#452982"/>
<line y1="-0.5" x2="1170" y2="-0.5" transform="matrix(1 6.16141e-09 2.30796e-08 -1 0 476.95)" stroke="#452982"/>
<line y1="-0.5" x2="1170" y2="-0.5" transform="matrix(1 6.16141e-09 2.30796e-08 -1 0 573.412)" stroke="#452982"/>
</svg>
